<?xml version="1.0" encoding="utf-8"?>
<!-- Generator: Adobe Illustrator 19.2.1, SVG Export Plug-In . SVG Version: 6.00 Build 0)  -->
<svg version="1.1" id="layer" xmlns="http://www.w3.org/2000/svg" xmlns:xlink="http://www.w3.org/1999/xlink" x="0px" y="0px"
	 viewBox="0 0 652 652" style="enable-background:new 0 0 652 652;" xml:space="preserve">
<style type="text/css">
	.st0{fill:#892074;}
	.st1{fill:#F5CF35;}
</style>
<g>
	<path class="st0" d="M24.2,278.9c-2-3.4-2.6-7.4-2.6-11.7c0-9.4,5.4-14.2,28.7-14.2h81l16.2-0.6c2,2.6,3.7,6.2,3.7,10.2
		c0,11.4-6.6,18.7-25.3,18.7H82.2V319h55.1c1.4,2.6,2.6,7.4,2.6,10.5c0,11.4-6.2,17.6-25,17.6H82.2v57.4c-4.3,2.6-14.8,3.4-22.2,3.4
		c-12.8,0-19-3.7-20.2-10.2c-0.8-6.2-1.1-27.5-1.1-59.7c0-21.6,0.3-58.5,0.3-58.5L24.2,278.9z"/>
	<path class="st0" d="M204.9,408.5c-38.1,0-59.4-16.5-59.4-55.7c0-41.2,27.3-65,68.5-65c38.4,0,58.8,17,58.8,56.2
		C272.8,387.7,243.2,408.5,204.9,408.5z M211.1,315.3c-17.3,0-23.6,10.5-23.6,34.9c0,25.3,4.5,32.1,21.6,32.1
		c14.8,0,22.4-9.4,22.4-34.9C231.5,326.4,228.1,315.3,211.1,315.3z"/>
	<path class="st0" d="M340.7,408.5c-38.1,0-59.4-16.5-59.4-55.7c0-41.2,27.3-65,68.5-65c38.4,0,58.8,17,58.8,56.2
		C408.6,387.7,379,408.5,340.7,408.5z M346.9,315.3c-17.3,0-23.6,10.5-23.6,34.9c0,25.3,4.5,32.1,21.6,32.1
		c14.8,0,22.4-9.4,22.4-34.9C367.4,326.4,363.9,315.3,346.9,315.3z"/>
	<path class="st0" d="M527.3,407.9c-11.7,0-19.6-1.4-24.7-4l2.3-22.7c-4.8,18.2-19.6,27-38.6,27c-32.4,0-49.2-13.9-49.2-54.3
		c0-44,27.9-66.2,68.2-66.2c5.1,0,9.4,0,15.6,0.6c0.3-43.2,0.6-32.7,0.8-41.2c0.6-9.1,8.5-13.9,21-13.9c5.9,0,15.4,0.8,20.2,2.9
		v145.2l13.3,0.3c1.4,2.6,2.6,6.8,2.6,9.9C558.8,403.4,549.4,407.9,527.3,407.9z M500.9,314.7c-5.1-0.8-8.5-1.1-15.6-1.1
		c-15.9,0-26.7,11.4-26.7,35.8c0,23.9,6.2,31.8,22.4,31.8c6.8,0,14.8-2.9,19.9-8.5V314.7z"/>
</g>
<g>
	<path class="st1" d="M596.3,407.9c-14.5,0-23-5.4-23-21c0-13.1,8.5-22.2,26.1-22.2c16.2,0,22.2,8,22.2,20.5
		C621.6,397.6,614.5,407.9,596.3,407.9z"/>
</g>
</svg>
